<svg id="Layer_1" xmlns="http://www.w3.org/2000/svg" viewBox="0 0 22 22"><style>.st0{fill-rule:evenodd;clip-rule:evenodd;fill:#ffde79}.st1{fill:none}</style><path class="st0" d="M11 1c.6 0 1 .4 1 1v2c0 .6-.4 1-1 1s-1-.4-1-1V2c0-.6.4-1 1-1zm0 16c.6 0 1 .4 1 1v2c0 .6-.4 1-1 1s-1-.4-1-1v-2c0-.6.4-1 1-1zm10-6c0 .6-.4 1-1 1h-2c-.6 0-1-.4-1-1s.4-1 1-1h2c.6 0 1 .4 1 1zM5 11c0 .6-.4 1-1 1H2c-.6 0-1-.4-1-1s.4-1 1-1h2c.6 0 1 .4 1 1zm13.1-7.1c.4.4.4 1 0 1.4l-1.4 1.4c-.4.4-1 .4-1.4 0-.4-.4-.4-1 0-1.4l1.4-1.4c.3-.4 1-.4 1.4 0zM6.8 15.2c.4.4.4 1 0 1.4L5.4 18c-.4.4-1 .4-1.4 0-.4-.4-.4-1 0-1.4l1.4-1.4c.3-.3 1-.3 1.4 0zm11.3 2.9c-.4.4-1 .4-1.4 0l-1.4-1.4c-.4-.4-.4-1 0-1.4.4-.4 1-.4 1.4 0l1.4 1.4c.4.3.4 1 0 1.4zM6.8 6.8c-.4.4-1 .4-1.4 0L3.9 5.3c-.4-.4-.4-1 0-1.4.4-.4 1-.4 1.4 0l1.4 1.4c.4.4.4 1.1.1 1.5z"/><circle class="st0" cx="11" cy="11" r="5"/><path class="st1" d="M0 0h22v22H0V0z"/></svg>